<svg width="392" height="146" viewBox="0 0 392 146" fill="none" xmlns="http://www.w3.org/2000/svg">
    <line x1="60.0724" y1="6.87224" x2="105.018" y2="38.1233" stroke="#151719" stroke-width="13" stroke-linecap="round"/>
    <line x1="37.4059" y1="18.6831" x2="59.1847" y2="6.95498" stroke="#151719" stroke-width="13" stroke-linecap="round"/>
    <line x1="122.193" y1="26.5512" x2="121.384" y2="81.2874" stroke="#151719" stroke-width="13" stroke-linecap="round"/>
    <line x1="99.734" y1="14.3506" x2="121.629" y2="25.8612" stroke="#151719" stroke-width="13" stroke-linecap="round"/>
    <line x1="136.882" y1="93.2838" x2="87.6932" y2="117.308" stroke="#151719" stroke-width="13" stroke-linecap="round"/>
    <line x1="137.611" y1="67.735" x2="137.242" y2="92.4682" stroke="#151719" stroke-width="13" stroke-linecap="round"/>
    <line x1="85.8361" y1="139.259" x2="40.8641" y2="108.046" stroke="#151719" stroke-width="13" stroke-linecap="round"/>
    <line x1="108.493" y1="127.428" x2="86.7237" y2="139.175" stroke="#151719" stroke-width="13" stroke-linecap="round"/>
    <line x1="21.8281" y1="114.931" x2="28.7415" y2="60.6271" stroke="#151719" stroke-width="13" stroke-linecap="round"/>
    <line x1="42.785" y1="129.562" x2="22.3121" y2="115.68" stroke="#151719" stroke-width="13" stroke-linecap="round"/>
    <line x1="10.4504" y1="50.9043" x2="58.8579" y2="25.3422" stroke="#151719" stroke-width="13" stroke-linecap="round"/>
    <line x1="10.5266" y1="76.4633" x2="10.116" y2="51.7308" stroke="#151719" stroke-width="13" stroke-linecap="round"/>
    <path d="M240.187 113H226.02L200.336 73.8452C198.83 71.5565 197.787 69.8327 197.208 68.6738H197.034C197.265 70.8757 197.381 74.2363 197.381 78.7559V113H184.127V50.6826H199.25L223.977 88.6206C225.107 90.3299 226.15 92.0247 227.106 93.7051H227.28C227.048 92.2565 226.932 89.4028 226.932 85.144V50.6826H240.187V113ZM293.074 94.6611H264.044C264.508 101.122 268.578 104.352 276.256 104.352C281.152 104.352 285.454 103.193 289.163 100.875V110.784C285.049 112.986 279.703 114.086 273.127 114.086C265.942 114.086 260.365 112.102 256.396 108.133C252.427 104.135 250.442 98.5723 250.442 91.4453C250.442 84.0576 252.586 78.2054 256.874 73.8887C261.162 69.5719 266.435 67.4136 272.692 67.4136C279.182 67.4136 284.194 69.3402 287.729 73.1934C291.292 77.0465 293.074 82.2759 293.074 88.8813V94.6611ZM280.341 86.2305C280.341 79.8568 277.762 76.6699 272.605 76.6699C270.404 76.6699 268.492 77.5825 266.869 79.4077C265.276 81.2329 264.305 83.5072 263.958 86.2305H280.341ZM343.614 68.5L325.536 116.563C321.19 128.123 314.643 133.903 305.894 133.903C302.562 133.903 299.824 133.526 297.68 132.773V121.822C299.505 122.894 301.49 123.43 303.634 123.43C307.168 123.43 309.631 121.764 311.021 118.432L313.368 112.913L295.29 68.5H310.5L318.8 95.5737C319.322 97.2541 319.727 99.2386 320.017 101.527H320.191C320.452 99.847 320.93 97.8914 321.625 95.6606L330.012 68.5H343.614ZM386.159 113H373.165V106.612H372.991C370.007 111.595 365.589 114.086 359.737 114.086C355.42 114.086 352.016 112.87 349.524 110.436C347.062 107.973 345.831 104.7 345.831 100.615C345.831 91.9813 350.944 86.9982 361.171 85.6655L373.252 84.0576C373.252 79.1904 370.616 76.7568 365.343 76.7568C360.041 76.7568 355 78.3358 350.22 81.4937V71.1509C352.132 70.1659 354.739 69.2967 358.042 68.5435C361.374 67.7902 364.401 67.4136 367.125 67.4136C379.814 67.4136 386.159 73.7438 386.159 86.4043V113ZM373.252 94.9219V91.9233L365.169 92.9663C360.707 93.5457 358.477 95.5592 358.477 99.0068C358.477 100.571 359.013 101.861 360.084 102.875C361.185 103.86 362.663 104.352 364.517 104.352C367.096 104.352 369.196 103.468 370.818 101.701C372.441 99.9049 373.252 97.6452 373.252 94.9219Z" fill="#151719"/>
</svg>
